<?xml version="1.0" encoding="UTF-8" standalone="no"?>
<!DOCTYPE svg PUBLIC "-//W3C//DTD SVG 1.1//EN" "http://www.w3.org/Graphics/SVG/1.1/DTD/svg11.dtd">
<svg width="100%" height="100%" viewBox="0 0 3000 700" version="1.1" xmlns="http://www.w3.org/2000/svg" xmlns:xlink="http://www.w3.org/1999/xlink" xml:space="preserve" xmlns:serif="http://www.serif.com/" style="fill-rule:evenodd;clip-rule:evenodd;stroke-linejoin:round;stroke-miterlimit:2;">
    <rect id="Artboard1" x="0" y="0" width="3000" height="699.408171" style="fill:none;"/>
    <g>
        <path d="M40.059905,637.170266L40.059905,669.477584L72.367222,669.477584L72.367222,637.170266L40.059905,637.170266ZM40.059905,112.176358L40.059905,144.483675L72.367222,144.483675L72.367222,112.176358L40.059905,112.176358ZM80.444051,637.170266L80.444051,669.477584L112.751369,669.477584L112.751369,637.170266L80.444051,637.170266ZM80.444051,596.786119L80.444051,629.093437L112.751369,629.093437L112.751369,596.786119L80.444051,596.786119ZM80.444051,556.401973L80.444051,588.70929L112.751369,588.70929L112.751369,556.401973L80.444051,556.401973ZM80.444051,516.017826L80.444051,548.325143L112.751369,548.325143L112.751369,516.017826L80.444051,516.017826ZM80.444051,475.633679L80.444051,507.940997L112.751369,507.940997L112.751369,475.633679L80.444051,475.633679ZM80.444051,435.249532L80.444051,467.55685L112.751369,467.55685L112.751369,435.249532L80.444051,435.249532ZM80.444051,394.865386L80.444051,427.172703L112.751369,427.172703L112.751369,394.865386L80.444051,394.865386ZM80.444051,354.481239L80.444051,386.788556L112.751369,386.788556L112.751369,354.481239L80.444051,354.481239ZM80.444051,314.097092L80.444051,346.404409L112.751369,346.404409L112.751369,314.097092L80.444051,314.097092ZM80.444051,273.712945L80.444051,306.020263L112.751369,306.020263L112.751369,273.712945L80.444051,273.712945ZM80.444051,233.328798L80.444051,265.636116L112.751369,265.636116L112.751369,233.328798L80.444051,233.328798ZM80.444051,192.944652L80.444051,225.251969L112.751369,225.251969L112.751369,192.944652L80.444051,192.944652ZM80.444051,152.560505L80.444051,184.867822L112.751369,184.867822L112.751369,152.560505L80.444051,152.560505ZM80.444051,112.176358L80.444051,144.483675L112.751369,144.483675L112.751369,112.176358L80.444051,112.176358ZM120.828198,637.170266L120.828198,669.477584L153.135516,669.477584L153.135516,637.170266L120.828198,637.170266ZM120.828198,596.786119L120.828198,629.093437L153.135516,629.093437L153.135516,596.786119L120.828198,596.786119ZM120.828198,556.401973L120.828198,588.70929L153.135516,588.70929L153.135516,556.401973L120.828198,556.401973ZM120.828198,516.017826L120.828198,548.325143L153.135516,548.325143L153.135516,516.017826L120.828198,516.017826ZM120.828198,475.633679L120.828198,507.940997L153.135516,507.940997L153.135516,475.633679L120.828198,475.633679ZM120.828198,435.249532L120.828198,467.55685L153.135516,467.55685L153.135516,435.249532L120.828198,435.249532ZM120.828198,394.865386L120.828198,427.172703L153.135516,427.172703L153.135516,394.865386L120.828198,394.865386ZM120.828198,354.481239L120.828198,386.788556L153.135516,386.788556L153.135516,354.481239L120.828198,354.481239ZM120.828198,314.097092L120.828198,346.404409L153.135516,346.404409L153.135516,314.097092L120.828198,314.097092ZM120.828198,273.712945L120.828198,306.020263L153.135516,306.020263L153.135516,273.712945L120.828198,273.712945ZM120.828198,233.328798L120.828198,265.636116L153.135516,265.636116L153.135516,233.328798L120.828198,233.328798ZM120.828198,192.944652L120.828198,225.251969L153.135516,225.251969L153.135516,192.944652L120.828198,192.944652ZM120.828198,152.560505L120.828198,184.867822L153.135516,184.867822L153.135516,152.560505L120.828198,152.560505ZM120.828198,112.176358L120.828198,144.483675L153.135516,144.483675L153.135516,112.176358L120.828198,112.176358ZM161.212345,637.170266L161.212345,669.477584L193.519662,669.477584L193.519662,637.170266L161.212345,637.170266ZM161.212345,596.786119L161.212345,629.093437L193.519662,629.093437L193.519662,596.786119L161.212345,596.786119ZM161.212345,556.401973L161.212345,588.70929L193.519662,588.70929L193.519662,556.401973L161.212345,556.401973ZM161.212345,516.017826L161.212345,548.325143L193.519662,548.325143L193.519662,516.017826L161.212345,516.017826ZM161.212345,475.633679L161.212345,507.940997L193.519662,507.940997L193.519662,475.633679L161.212345,475.633679ZM161.212345,435.249532L161.212345,467.55685L193.519662,467.55685L193.519662,435.249532L161.212345,435.249532ZM161.212345,394.865386L161.212345,427.172703L193.519662,427.172703L193.519662,394.865386L161.212345,394.865386ZM161.212345,354.481239L161.212345,386.788556L193.519662,386.788556L193.519662,354.481239L161.212345,354.481239ZM161.212345,314.097092L161.212345,346.404409L193.519662,346.404409L193.519662,314.097092L161.212345,314.097092ZM161.212345,273.712945L161.212345,306.020263L193.519662,306.020263L193.519662,273.712945L161.212345,273.712945ZM161.212345,233.328798L161.212345,265.636116L193.519662,265.636116L193.519662,233.328798L161.212345,233.328798ZM161.212345,192.944652L161.212345,225.251969L193.519662,225.251969L193.519662,192.944652L161.212345,192.944652ZM161.212345,152.560505L161.212345,184.867822L193.519662,184.867822L193.519662,152.560505L161.212345,152.560505ZM161.212345,112.176358L161.212345,144.483675L193.519662,144.483675L193.519662,112.176358L161.212345,112.176358ZM201.596492,637.170266L201.596492,669.477584L233.903809,669.477584L233.903809,637.170266L201.596492,637.170266ZM201.596492,596.786119L201.596492,629.093437L233.903809,629.093437L233.903809,596.786119L201.596492,596.786119ZM201.596492,394.865386L201.596492,427.172703L233.903809,427.172703L233.903809,394.865386L201.596492,394.865386ZM201.596492,354.481239L201.596492,386.788556L233.903809,386.788556L233.903809,354.481239L201.596492,354.481239ZM201.596492,152.560505L201.596492,184.867822L233.903809,184.867822L233.903809,152.560505L201.596492,152.560505ZM201.596492,112.176358L201.596492,144.483675L233.903809,144.483675L233.903809,112.176358L201.596492,112.176358ZM241.980639,637.170266L241.980639,669.477584L274.287956,669.477584L274.287956,637.170266L241.980639,637.170266ZM241.980639,596.786119L241.980639,629.093437L274.287956,629.093437L274.287956,596.786119L241.980639,596.786119ZM241.980639,394.865386L241.980639,427.172703L274.287956,427.172703L274.287956,394.865386L241.980639,394.865386ZM241.980639,354.481239L241.980639,386.788556L274.287956,386.788556L274.287956,354.481239L241.980639,354.481239ZM241.980639,152.560505L241.980639,184.867822L274.287956,184.867822L274.287956,152.560505L241.980639,152.560505ZM241.980639,112.176358L241.980639,144.483675L274.287956,144.483675L274.287956,112.176358L241.980639,112.176358ZM282.364785,637.170266L282.364785,669.477584L314.672103,669.477584L314.672103,637.170266L282.364785,637.170266ZM282.364785,596.786119L282.364785,629.093437L314.672103,629.093437L314.672103,596.786119L282.364785,596.786119ZM282.364785,394.865386L282.364785,427.172703L314.672103,427.172703L314.672103,394.865386L282.364785,394.865386ZM282.364785,354.481239L282.364785,386.788556L314.672103,386.788556L314.672103,354.481239L282.364785,354.481239ZM282.364785,152.560505L282.364785,184.867822L314.672103,184.867822L314.672103,152.560505L282.364785,152.560505ZM282.364785,112.176358L282.364785,144.483675L314.672103,144.483675L314.672103,112.176358L282.364785,112.176358ZM322.748932,637.170266L322.748932,669.477584L355.05625,669.477584L355.05625,637.170266L322.748932,637.170266ZM322.748932,596.786119L322.748932,629.093437L355.05625,629.093437L355.05625,596.786119L322.748932,596.786119ZM322.748932,556.401973L322.748932,588.70929L355.05625,588.70929L355.05625,556.401973L322.748932,556.401973ZM322.748932,394.865386L322.748932,427.172703L355.05625,427.172703L355.05625,394.865386L322.748932,394.865386ZM322.748932,354.481239L322.748932,386.788556L355.05625,386.788556L355.05625,354.481239L322.748932,354.481239ZM322.748932,314.097092L322.748932,346.404409L355.05625,346.404409L355.05625,314.097092L322.748932,314.097092ZM322.748932,192.944652L322.748932,225.251969L355.05625,225.251969L355.05625,192.944652L322.748932,192.944652ZM322.748932,152.560505L322.748932,184.867822L355.05625,184.867822L355.05625,152.560505L322.748932,152.560505ZM322.748932,112.176358L322.748932,144.483675L355.05625,144.483675L355.05625,112.176358L322.748932,112.176358ZM363.133079,596.786119L363.133079,629.093437L395.440396,629.093437L395.440396,596.786119L363.133079,596.786119ZM363.133079,556.401973L363.133079,588.70929L395.440396,588.70929L395.440396,556.401973L363.133079,556.401973ZM363.133079,516.017826L363.133079,548.325143L395.440396,548.325143L395.440396,516.017826L363.133079,516.017826ZM363.133079,475.633679L363.133079,507.940997L395.440396,507.940997L395.440396,475.633679L363.133079,475.633679ZM363.133079,435.249532L363.133079,467.55685L395.440396,467.55685L395.440396,435.249532L363.133079,435.249532ZM363.133079,394.865386L363.133079,427.172703L395.440396,427.172703L395.440396,394.865386L363.133079,394.865386ZM363.133079,354.481239L363.133079,386.788556L395.440396,386.788556L395.440396,354.481239L363.133079,354.481239ZM363.133079,314.097092L363.133079,346.404409L395.440396,346.404409L395.440396,314.097092L363.133079,314.097092ZM363.133079,273.712945L363.133079,306.020263L395.440396,306.020263L395.440396,273.712945L363.133079,273.712945ZM363.133079,233.328798L363.133079,265.636116L395.440396,265.636116L395.440396,233.328798L363.133079,233.328798ZM363.133079,192.944652L363.133079,225.251969L395.440396,225.251969L395.440396,192.944652L363.133079,192.944652ZM363.133079,152.560505L363.133079,184.867822L395.440396,184.867822L395.440396,152.560505L363.133079,152.560505ZM403.517226,596.786119L403.517226,629.093437L435.824543,629.093437L435.824543,596.786119L403.517226,596.786119ZM403.517226,556.401973L403.517226,588.70929L435.824543,588.70929L435.824543,556.401973L403.517226,556.401973ZM403.517226,516.017826L403.517226,548.325143L435.824543,548.325143L435.824543,516.017826L403.517226,516.017826ZM403.517226,475.633679L403.517226,507.940997L435.824543,507.940997L435.824543,475.633679L403.517226,475.633679ZM403.517226,435.249532L403.517226,467.55685L435.824543,467.55685L435.824543,435.249532L403.517226,435.249532ZM403.517226,394.865386L403.517226,427.172703L435.824543,427.172703L435.824543,394.865386L403.517226,394.865386ZM403.517226,314.097092L403.517226,346.404409L435.824543,346.404409L435.824543,314.097092L403.517226,314.097092ZM403.517226,273.712945L403.517226,306.020263L435.824543,306.020263L435.824543,273.712945L403.517226,273.712945ZM403.517226,233.328798L403.517226,265.636116L435.824543,265.636116L435.824543,233.328798L403.517226,233.328798ZM403.517226,192.944652L403.517226,225.251969L435.824543,225.251969L435.824543,192.944652L403.517226,192.944652ZM403.517226,152.560505L403.517226,184.867822L435.824543,184.867822L435.824543,152.560505L403.517226,152.560505ZM443.901372,556.401973L443.901372,588.70929L476.20869,588.70929L476.20869,556.401973L443.901372,556.401973ZM443.901372,516.017826L443.901372,548.325143L476.20869,548.325143L476.20869,516.017826L443.901372,516.017826ZM443.901372,475.633679L443.901372,507.940997L476.20869,507.940997L476.20869,475.633679L443.901372,475.633679ZM443.901372,435.249532L443.901372,467.55685L476.20869,467.55685L476.20869,435.249532L443.901372,435.249532ZM443.901372,273.712945L443.901372,306.020263L476.20869,306.020263L476.20869,273.712945L443.901372,273.712945ZM443.901372,233.328798L443.901372,265.636116L476.20869,265.636116L476.20869,233.328798L443.901372,233.328798ZM443.901372,192.944652L443.901372,225.251969L476.20869,225.251969L476.20869,192.944652L443.901372,192.944652ZM322.748932,435.249532L322.748932,467.55685L355.05625,467.55685L355.05625,435.249532L322.748932,435.249532Z"/>
        <path d="M535.169544,556.401973L535.169544,588.70929L567.476862,588.70929L567.476862,556.401973L535.169544,556.401973ZM535.169544,516.017826L535.169544,548.325143L567.476862,548.325143L567.476862,516.017826L535.169544,516.017826ZM535.169544,475.633679L535.169544,507.940997L567.476862,507.940997L567.476862,475.633679L535.169544,475.633679ZM535.169544,435.249532L535.169544,467.55685L567.476862,467.55685L567.476862,435.249532L535.169544,435.249532ZM535.169544,394.865386L535.169544,427.172703L567.476862,427.172703L567.476862,394.865386L535.169544,394.865386ZM535.169544,354.481239L535.169544,386.788556L567.476862,386.788556L567.476862,354.481239L535.169544,354.481239ZM535.169544,314.097092L535.169544,346.404409L567.476862,346.404409L567.476862,314.097092L535.169544,314.097092ZM575.553691,596.786119L575.553691,629.093437L607.861008,629.093437L607.861008,596.786119L575.553691,596.786119ZM575.553691,556.401973L575.553691,588.70929L607.861008,588.70929L607.861008,556.401973L575.553691,556.401973ZM575.553691,516.017826L575.553691,548.325143L607.861008,548.325143L607.861008,516.017826L575.553691,516.017826ZM575.553691,475.633679L575.553691,507.940997L607.861008,507.940997L607.861008,475.633679L575.553691,475.633679ZM575.553691,435.249532L575.553691,467.55685L607.861008,467.55685L607.861008,435.249532L575.553691,435.249532ZM575.553691,394.865386L575.553691,427.172703L607.861008,427.172703L607.861008,394.865386L575.553691,394.865386ZM575.553691,354.481239L575.553691,386.788556L607.861008,386.788556L607.861008,354.481239L575.553691,354.481239ZM575.553691,314.097092L575.553691,346.404409L607.861008,346.404409L607.861008,314.097092L575.553691,314.097092ZM575.553691,273.712945L575.553691,306.020263L607.861008,306.020263L607.861008,273.712945L575.553691,273.712945ZM615.937838,637.170266L615.937838,669.477584L648.245155,669.477584L648.245155,637.170266L615.937838,637.170266ZM615.937838,596.786119L615.937838,629.093437L648.245155,629.093437L648.245155,596.786119L615.937838,596.786119ZM615.937838,556.401973L615.937838,588.70929L648.245155,588.70929L648.245155,556.401973L615.937838,556.401973ZM615.937838,516.017826L615.937838,548.325143L648.245155,548.325143L648.245155,516.017826L615.937838,516.017826ZM615.937838,475.633679L615.937838,507.940997L648.245155,507.940997L648.245155,475.633679L615.937838,475.633679ZM615.937838,394.865386L615.937838,427.172703L648.245155,427.172703L648.245155,394.865386L615.937838,394.865386ZM615.937838,354.481239L615.937838,386.788556L648.245155,386.788556L648.245155,354.481239L615.937838,354.481239ZM615.937838,314.097092L615.937838,346.404409L648.245155,346.404409L648.245155,314.097092L615.937838,314.097092ZM615.937838,273.712945L615.937838,306.020263L648.245155,306.020263L648.245155,273.712945L615.937838,273.712945ZM615.937838,233.328798L615.937838,265.636116L648.245155,265.636116L648.245155,233.328798L615.937838,233.328798ZM656.321985,637.170266L656.321985,669.477584L688.629302,669.477584L688.629302,637.170266L656.321985,637.170266ZM656.321985,596.786119L656.321985,629.093437L688.629302,629.093437L688.629302,596.786119L656.321985,596.786119ZM656.321985,273.712945L656.321985,306.020263L688.629302,306.020263L688.629302,273.712945L656.321985,273.712945ZM656.321985,233.328798L656.321985,265.636116L688.629302,265.636116L688.629302,233.328798L656.321985,233.328798ZM696.706131,637.170266L696.706131,669.477584L729.013449,669.477584L729.013449,637.170266L696.706131,637.170266ZM696.706131,596.786119L696.706131,629.093437L729.013449,629.093437L729.013449,596.786119L696.706131,596.786119ZM696.706131,273.712945L696.706131,306.020263L729.013449,306.020263L729.013449,273.712945L696.706131,273.712945ZM696.706131,233.328798L696.706131,265.636116L729.013449,265.636116L729.013449,233.328798L696.706131,233.328798ZM737.090278,637.170266L737.090278,669.477584L769.397596,669.477584L769.397596,637.170266L737.090278,637.170266ZM737.090278,596.786119L737.090278,629.093437L769.397596,629.093437L769.397596,596.786119L737.090278,596.786119ZM737.090278,273.712945L737.090278,306.020263L769.397596,306.020263L769.397596,273.712945L737.090278,273.712945ZM737.090278,233.328798L737.090278,265.636116L769.397596,265.636116L769.397596,233.328798L737.090278,233.328798ZM777.474425,637.170266L777.474425,669.477584L809.781742,669.477584L809.781742,637.170266L777.474425,637.170266ZM777.474425,596.786119L777.474425,629.093437L809.781742,629.093437L809.781742,596.786119L777.474425,596.786119ZM777.474425,273.712945L777.474425,306.020263L809.781742,306.020263L809.781742,273.712945L777.474425,273.712945ZM777.474425,233.328798L777.474425,265.636116L809.781742,265.636116L809.781742,233.328798L777.474425,233.328798ZM817.858572,637.170266L817.858572,669.477584L850.165889,669.477584L850.165889,637.170266L817.858572,637.170266ZM817.858572,596.786119L817.858572,629.093437L850.165889,629.093437L850.165889,596.786119L817.858572,596.786119ZM817.858572,556.401973L817.858572,588.70929L850.165889,588.70929L850.165889,556.401973L817.858572,556.401973ZM817.858572,516.017826L817.858572,548.325143L850.165889,548.325143L850.165889,516.017826L817.858572,516.017826ZM817.858572,475.633679L817.858572,507.940997L850.165889,507.940997L850.165889,475.633679L817.858572,475.633679ZM817.858572,435.249532L817.858572,467.55685L850.165889,467.55685L850.165889,435.249532L817.858572,435.249532ZM817.858572,394.865386L817.858572,427.172703L850.165889,427.172703L850.165889,394.865386L817.858572,394.865386ZM817.858572,354.481239L817.858572,386.788556L850.165889,386.788556L850.165889,354.481239L817.858572,354.481239ZM817.858572,314.097092L817.858572,346.404409L850.165889,346.404409L850.165889,314.097092L817.858572,314.097092ZM817.858572,273.712945L817.858572,306.020263L850.165889,306.020263L850.165889,273.712945L817.858572,273.712945ZM817.858572,233.328798L817.858572,265.636116L850.165889,265.636116L850.165889,233.328798L817.858572,233.328798ZM858.242719,596.786119L858.242719,629.093437L890.550036,629.093437L890.550036,596.786119L858.242719,596.786119ZM858.242719,556.401973L858.242719,588.70929L890.550036,588.70929L890.550036,556.401973L858.242719,556.401973ZM858.242719,516.017826L858.242719,548.325143L890.550036,548.325143L890.550036,516.017826L858.242719,516.017826ZM858.242719,475.633679L858.242719,507.940997L890.550036,507.940997L890.550036,475.633679L858.242719,475.633679ZM858.242719,435.249532L858.242719,467.55685L890.550036,467.55685L890.550036,435.249532L858.242719,435.249532ZM858.242719,394.865386L858.242719,427.172703L890.550036,427.172703L890.550036,394.865386L858.242719,394.865386ZM858.242719,354.481239L858.242719,386.788556L890.550036,386.788556L890.550036,354.481239L858.242719,354.481239ZM858.242719,314.097092L858.242719,346.404409L890.550036,346.404409L890.550036,314.097092L858.242719,314.097092ZM858.242719,273.712945L858.242719,306.020263L890.550036,306.020263L890.550036,273.712945L858.242719,273.712945ZM898.626865,556.401973L898.626865,588.70929L930.934183,588.70929L930.934183,556.401973L898.626865,556.401973ZM898.626865,516.017826L898.626865,548.325143L930.934183,548.325143L930.934183,516.017826L898.626865,516.017826ZM898.626865,475.633679L898.626865,507.940997L930.934183,507.940997L930.934183,475.633679L898.626865,475.633679ZM898.626865,435.249532L898.626865,467.55685L930.934183,467.55685L930.934183,435.249532L898.626865,435.249532ZM898.626865,394.865386L898.626865,427.172703L930.934183,427.172703L930.934183,394.865386L898.626865,394.865386ZM898.626865,354.481239L898.626865,386.788556L930.934183,386.788556L930.934183,354.481239L898.626865,354.481239ZM898.626865,314.097092L898.626865,346.404409L930.934183,346.404409L930.934183,314.097092L898.626865,314.097092ZM615.937838,435.249532L615.937838,467.55685L648.245155,467.55685L648.245155,435.249532L615.937838,435.249532Z"/>
        <path d="M951.126256,637.170266L951.126256,669.477584L983.433574,669.477584L983.433574,637.170266L951.126256,637.170266ZM951.126256,233.328798L951.126256,265.636116L983.433574,265.636116L983.433574,233.328798L951.126256,233.328798ZM991.510403,637.170266L991.510403,669.477584L1023.81772,669.477584L1023.81772,637.170266L991.510403,637.170266ZM991.510403,233.328798L991.510403,265.636116L1023.81772,265.636116L1023.81772,233.328798L991.510403,233.328798ZM1031.89455,637.170266L1031.89455,669.477584L1064.201867,669.477584L1064.201867,637.170266L1031.89455,637.170266ZM1031.89455,596.786119L1031.89455,629.093437L1064.201867,629.093437L1064.201867,596.786119L1031.89455,596.786119ZM1031.89455,556.401973L1031.89455,588.70929L1064.201867,588.70929L1064.201867,556.401973L1031.89455,556.401973ZM1031.89455,314.097092L1031.89455,346.404409L1064.201867,346.404409L1064.201867,314.097092L1031.89455,314.097092ZM1031.89455,273.712945L1031.89455,306.020263L1064.201867,306.020263L1064.201867,273.712945L1031.89455,273.712945ZM1031.89455,233.328798L1031.89455,265.636116L1064.201867,265.636116L1064.201867,233.328798L1031.89455,233.328798ZM1072.278697,637.170266L1072.278697,669.477584L1104.586014,669.477584L1104.586014,637.170266L1072.278697,637.170266ZM1072.278697,596.786119L1072.278697,629.093437L1104.586014,629.093437L1104.586014,596.786119L1072.278697,596.786119ZM1072.278697,556.401973L1072.278697,588.70929L1104.586014,588.70929L1104.586014,556.401973L1072.278697,556.401973ZM1072.278697,516.017826L1072.278697,548.325143L1104.586014,548.325143L1104.586014,516.017826L1072.278697,516.017826ZM1072.278697,354.481239L1072.278697,386.788556L1104.586014,386.788556L1104.586014,354.481239L1072.278697,354.481239ZM1072.278697,314.097092L1072.278697,346.404409L1104.586014,346.404409L1104.586014,314.097092L1072.278697,314.097092ZM1072.278697,273.712945L1072.278697,306.020263L1104.586014,306.020263L1104.586014,273.712945L1072.278697,273.712945ZM1072.278697,233.328798L1072.278697,265.636116L1104.586014,265.636116L1104.586014,233.328798L1072.278697,233.328798ZM1112.662843,516.017826L1112.662843,548.325143L1144.970161,548.325143L1144.970161,516.017826L1112.662843,516.017826ZM1112.662843,475.633679L1112.662843,507.940997L1144.970161,507.940997L1144.970161,475.633679L1112.662843,475.633679ZM1112.662843,435.249532L1112.662843,467.55685L1144.970161,467.55685L1144.970161,435.249532L1112.662843,435.249532ZM1112.662843,394.865386L1112.662843,427.172703L1144.970161,427.172703L1144.970161,394.865386L1112.662843,394.865386ZM1112.662843,354.481239L1112.662843,386.788556L1144.970161,386.788556L1144.970161,354.481239L1112.662843,354.481239ZM1112.662843,314.097092L1112.662843,346.404409L1144.970161,346.404409L1144.970161,314.097092L1112.662843,314.097092ZM1112.662843,273.712945L1112.662843,306.020263L1144.970161,306.020263L1144.970161,273.712945L1112.662843,273.712945ZM1112.662843,233.328798L1112.662843,265.636116L1144.970161,265.636116L1144.970161,233.328798L1112.662843,233.328798ZM1153.04699,516.017826L1153.04699,548.325143L1185.354308,548.325143L1185.354308,516.017826L1153.04699,516.017826ZM1153.04699,475.633679L1153.04699,507.940997L1185.354308,507.940997L1185.354308,475.633679L1153.04699,475.633679ZM1153.04699,435.249532L1153.04699,467.55685L1185.354308,467.55685L1185.354308,435.249532L1153.04699,435.249532ZM1153.04699,394.865386L1153.04699,427.172703L1185.354308,427.172703L1185.354308,394.865386L1153.04699,394.865386ZM1153.04699,354.481239L1153.04699,386.788556L1185.354308,386.788556L1185.354308,354.481239L1153.04699,354.481239ZM1193.431137,637.170266L1193.431137,669.477584L1225.738454,669.477584L1225.738454,637.170266L1193.431137,637.170266ZM1193.431137,556.401973L1193.431137,588.70929L1225.738454,588.70929L1225.738454,556.401973L1193.431137,556.401973ZM1193.431137,516.017826L1193.431137,548.325143L1225.738454,548.325143L1225.738454,516.017826L1193.431137,516.017826ZM1193.431137,475.633679L1193.431137,507.940997L1225.738454,507.940997L1225.738454,475.633679L1193.431137,475.633679ZM1193.431137,435.249532L1193.431137,467.55685L1225.738454,467.55685L1225.738454,435.249532L1193.431137,435.249532ZM1193.431137,394.865386L1193.431137,427.172703L1225.738454,427.172703L1225.738454,394.865386L1193.431137,394.865386ZM1193.431137,354.481239L1193.431137,386.788556L1225.738454,386.788556L1225.738454,354.481239L1193.431137,354.481239ZM1193.431137,314.097092L1193.431137,346.404409L1225.738454,346.404409L1225.738454,314.097092L1193.431137,314.097092ZM1233.815284,637.170266L1233.815284,669.477584L1266.122601,669.477584L1266.122601,637.170266L1233.815284,637.170266ZM1233.815284,596.786119L1233.815284,629.093437L1266.122601,629.093437L1266.122601,596.786119L1233.815284,596.786119ZM1233.815284,556.401973L1233.815284,588.70929L1266.122601,588.70929L1266.122601,556.401973L1233.815284,556.401973ZM1233.815284,516.017826L1233.815284,548.325143L1266.122601,548.325143L1266.122601,516.017826L1233.815284,516.017826ZM1233.815284,475.633679L1233.815284,507.940997L1266.122601,507.940997L1266.122601,475.633679L1233.815284,475.633679ZM1233.815284,354.481239L1233.815284,386.788556L1266.122601,386.788556L1266.122601,354.481239L1233.815284,354.481239ZM1233.815284,314.097092L1233.815284,346.404409L1266.122601,346.404409L1266.122601,314.097092L1233.815284,314.097092ZM1233.815284,273.712945L1233.815284,306.020263L1266.122601,306.020263L1266.122601,273.712945L1233.815284,273.712945ZM1233.815284,233.328798L1233.815284,265.636116L1266.122601,265.636116L1266.122601,233.328798L1233.815284,233.328798ZM1274.19943,637.170266L1274.19943,669.477584L1306.506748,669.477584L1306.506748,637.170266L1274.19943,637.170266ZM1274.19943,596.786119L1274.19943,629.093437L1306.506748,629.093437L1306.506748,596.786119L1274.19943,596.786119ZM1274.19943,556.401973L1274.19943,588.70929L1306.506748,588.70929L1306.506748,556.401973L1274.19943,556.401973ZM1274.19943,314.097092L1274.19943,346.404409L1306.506748,346.404409L1306.506748,314.097092L1274.19943,314.097092ZM1274.19943,273.712945L1274.19943,306.020263L1306.506748,306.020263L1306.506748,273.712945L1274.19943,273.712945ZM1274.19943,233.328798L1274.19943,265.636116L1306.506748,265.636116L1306.506748,233.328798L1274.19943,233.328798ZM1314.583577,637.170266L1314.583577,669.477584L1346.890895,669.477584L1346.890895,637.170266L1314.583577,637.170266ZM1314.583577,233.328798L1314.583577,265.636116L1346.890895,265.636116L1346.890895,233.328798L1314.583577,233.328798ZM1354.967724,637.170266L1354.967724,669.477584L1387.275041,669.477584L1387.275041,637.170266L1354.967724,637.170266ZM1354.967724,233.328798L1354.967724,265.636116L1387.275041,265.636116L1387.275041,233.328798L1354.967724,233.328798Z"/>
        <path d="M1412.313212,637.170266L1412.313212,669.477584L1444.62053,669.477584L1444.62053,637.170266L1412.313212,637.170266ZM1412.313212,31.408064L1412.313212,63.715382L1444.62053,63.715382L1444.62053,31.408064L1412.313212,31.408064ZM1452.697359,637.170266L1452.697359,669.477584L1485.004677,669.477584L1485.004677,637.170266L1452.697359,637.170266ZM1452.697359,596.786119L1452.697359,629.093437L1485.004677,629.093437L1485.004677,596.786119L1452.697359,596.786119ZM1452.697359,556.401973L1452.697359,588.70929L1485.004677,588.70929L1485.004677,556.401973L1452.697359,556.401973ZM1452.697359,516.017826L1452.697359,548.325143L1485.004677,548.325143L1485.004677,516.017826L1452.697359,516.017826ZM1452.697359,475.633679L1452.697359,507.940997L1485.004677,507.940997L1485.004677,475.633679L1452.697359,475.633679ZM1452.697359,435.249532L1452.697359,467.55685L1485.004677,467.55685L1485.004677,435.249532L1452.697359,435.249532ZM1452.697359,394.865386L1452.697359,427.172703L1485.004677,427.172703L1485.004677,394.865386L1452.697359,394.865386ZM1452.697359,354.481239L1452.697359,386.788556L1485.004677,386.788556L1485.004677,354.481239L1452.697359,354.481239ZM1452.697359,314.097092L1452.697359,346.404409L1485.004677,346.404409L1485.004677,314.097092L1452.697359,314.097092ZM1452.697359,273.712945L1452.697359,306.020263L1485.004677,306.020263L1485.004677,273.712945L1452.697359,273.712945ZM1452.697359,233.328798L1452.697359,265.636116L1485.004677,265.636116L1485.004677,233.328798L1452.697359,233.328798ZM1452.697359,192.944652L1452.697359,225.251969L1485.004677,225.251969L1485.004677,192.944652L1452.697359,192.944652ZM1452.697359,152.560505L1452.697359,184.867822L1485.004677,184.867822L1485.004677,152.560505L1452.697359,152.560505ZM1452.697359,112.176358L1452.697359,144.483675L1485.004677,144.483675L1485.004677,112.176358L1452.697359,112.176358ZM1452.697359,71.792211L1452.697359,104.099529L1485.004677,104.099529L1485.004677,71.792211L1452.697359,71.792211ZM1452.697359,31.408064L1452.697359,63.715382L1485.004677,63.715382L1485.004677,31.408064L1452.697359,31.408064ZM1493.081506,637.170266L1493.081506,669.477584L1525.388823,669.477584L1525.388823,637.170266L1493.081506,637.170266ZM1493.081506,596.786119L1493.081506,629.093437L1525.388823,629.093437L1525.388823,596.786119L1493.081506,596.786119ZM1493.081506,556.401973L1493.081506,588.70929L1525.388823,588.70929L1525.388823,556.401973L1493.081506,556.401973ZM1493.081506,516.017826L1493.081506,548.325143L1525.388823,548.325143L1525.388823,516.017826L1493.081506,516.017826ZM1493.081506,475.633679L1493.081506,507.940997L1525.388823,507.940997L1525.388823,475.633679L1493.081506,475.633679ZM1493.081506,435.249532L1493.081506,467.55685L1525.388823,467.55685L1525.388823,435.249532L1493.081506,435.249532ZM1493.081506,394.865386L1493.081506,427.172703L1525.388823,427.172703L1525.388823,394.865386L1493.081506,394.865386ZM1493.081506,354.481239L1493.081506,386.788556L1525.388823,386.788556L1525.388823,354.481239L1493.081506,354.481239ZM1493.081506,314.097092L1493.081506,346.404409L1525.388823,346.404409L1525.388823,314.097092L1493.081506,314.097092ZM1493.081506,273.712945L1493.081506,306.020263L1525.388823,306.020263L1525.388823,273.712945L1493.081506,273.712945ZM1493.081506,233.328798L1493.081506,265.636116L1525.388823,265.636116L1525.388823,233.328798L1493.081506,233.328798ZM1493.081506,192.944652L1493.081506,225.251969L1525.388823,225.251969L1525.388823,192.944652L1493.081506,192.944652ZM1493.081506,152.560505L1493.081506,184.867822L1525.388823,184.867822L1525.388823,152.560505L1493.081506,152.560505ZM1493.081506,112.176358L1493.081506,144.483675L1525.388823,144.483675L1525.388823,112.176358L1493.081506,112.176358ZM1493.081506,71.792211L1493.081506,104.099529L1525.388823,104.099529L1525.388823,71.792211L1493.081506,71.792211ZM1493.081506,31.408064L1493.081506,63.715382L1525.388823,63.715382L1525.388823,31.408064L1493.081506,31.408064ZM1533.465653,637.170266L1533.465653,669.477584L1565.77297,669.477584L1565.77297,637.170266L1533.465653,637.170266ZM1533.465653,596.786119L1533.465653,629.093437L1565.77297,629.093437L1565.77297,596.786119L1533.465653,596.786119ZM1533.465653,556.401973L1533.465653,588.70929L1565.77297,588.70929L1565.77297,556.401973L1533.465653,556.401973ZM1533.465653,516.017826L1533.465653,548.325143L1565.77297,548.325143L1565.77297,516.017826L1533.465653,516.017826ZM1533.465653,475.633679L1533.465653,507.940997L1565.77297,507.940997L1565.77297,475.633679L1533.465653,475.633679ZM1533.465653,435.249532L1533.465653,467.55685L1565.77297,467.55685L1565.77297,435.249532L1533.465653,435.249532ZM1533.465653,394.865386L1533.465653,427.172703L1565.77297,427.172703L1565.77297,394.865386L1533.465653,394.865386ZM1533.465653,354.481239L1533.465653,386.788556L1565.77297,386.788556L1565.77297,354.481239L1533.465653,354.481239ZM1533.465653,314.097092L1533.465653,346.404409L1565.77297,346.404409L1565.77297,314.097092L1533.465653,314.097092ZM1533.465653,273.712945L1533.465653,306.020263L1565.77297,306.020263L1565.77297,273.712945L1533.465653,273.712945ZM1533.465653,233.328798L1533.465653,265.636116L1565.77297,265.636116L1565.77297,233.328798L1533.465653,233.328798ZM1533.465653,192.944652L1533.465653,225.251969L1565.77297,225.251969L1565.77297,192.944652L1533.465653,192.944652ZM1533.465653,152.560505L1533.465653,184.867822L1565.77297,184.867822L1565.77297,152.560505L1533.465653,152.560505ZM1533.465653,112.176358L1533.465653,144.483675L1565.77297,144.483675L1565.77297,112.176358L1533.465653,112.176358ZM1533.465653,71.792211L1533.465653,104.099529L1565.77297,104.099529L1565.77297,71.792211L1533.465653,71.792211ZM1533.465653,31.408064L1533.465653,63.715382L1565.77297,63.715382L1565.77297,31.408064L1533.465653,31.408064ZM1573.8498,637.170266L1573.8498,669.477584L1606.157117,669.477584L1606.157117,637.170266L1573.8498,637.170266Z"/>
        <path d="M1654.618093,596.786119L1654.618093,629.093437L1686.925411,629.093437L1686.925411,596.786119L1654.618093,596.786119ZM1654.618093,556.401973L1654.618093,588.70929L1686.925411,588.70929L1686.925411,556.401973L1654.618093,556.401973ZM1654.618093,516.017826L1654.618093,548.325143L1686.925411,548.325143L1686.925411,516.017826L1654.618093,516.017826ZM1654.618093,475.633679L1654.618093,507.940997L1686.925411,507.940997L1686.925411,475.633679L1654.618093,475.633679ZM1654.618093,354.481239L1654.618093,386.788556L1686.925411,386.788556L1686.925411,354.481239L1654.618093,354.481239ZM1654.618093,314.097092L1654.618093,346.404409L1686.925411,346.404409L1686.925411,314.097092L1654.618093,314.097092ZM1654.618093,273.712945L1654.618093,306.020263L1686.925411,306.020263L1686.925411,273.712945L1654.618093,273.712945ZM1695.00224,637.170266L1695.00224,669.477584L1727.309557,669.477584L1727.309557,637.170266L1695.00224,637.170266ZM1695.00224,596.786119L1695.00224,629.093437L1727.309557,629.093437L1727.309557,596.786119L1695.00224,596.786119ZM1695.00224,556.401973L1695.00224,588.70929L1727.309557,588.70929L1727.309557,556.401973L1695.00224,556.401973ZM1695.00224,516.017826L1695.00224,548.325143L1727.309557,548.325143L1727.309557,516.017826L1695.00224,516.017826ZM1695.00224,475.633679L1695.00224,507.940997L1727.309557,507.940997L1727.309557,475.633679L1695.00224,475.633679ZM1695.00224,435.249532L1695.00224,467.55685L1727.309557,467.55685L1727.309557,435.249532L1695.00224,435.249532ZM1695.00224,273.712945L1695.00224,306.020263L1727.309557,306.020263L1727.309557,273.712945L1695.00224,273.712945ZM1695.00224,233.328798L1695.00224,265.636116L1727.309557,265.636116L1727.309557,233.328798L1695.00224,233.328798ZM1735.386387,637.170266L1735.386387,669.477584L1767.693704,669.477584L1767.693704,637.170266L1735.386387,637.170266ZM1735.386387,596.786119L1735.386387,629.093437L1767.693704,629.093437L1767.693704,596.786119L1735.386387,596.786119ZM1735.386387,556.401973L1735.386387,588.70929L1767.693704,588.70929L1767.693704,556.401973L1735.386387,556.401973ZM1735.386387,516.017826L1735.386387,548.325143L1767.693704,548.325143L1767.693704,516.017826L1735.386387,516.017826ZM1735.386387,475.633679L1735.386387,507.940997L1767.693704,507.940997L1767.693704,475.633679L1735.386387,475.633679ZM1735.386387,435.249532L1735.386387,467.55685L1767.693704,467.55685L1767.693704,435.249532L1735.386387,435.249532ZM1735.386387,273.712945L1735.386387,306.020263L1767.693704,306.020263L1767.693704,273.712945L1735.386387,273.712945ZM1735.386387,233.328798L1735.386387,265.636116L1767.693704,265.636116L1767.693704,233.328798L1735.386387,233.328798ZM1775.770534,637.170266L1775.770534,669.477584L1808.077851,669.477584L1808.077851,637.170266L1775.770534,637.170266ZM1775.770534,596.786119L1775.770534,629.093437L1808.077851,629.093437L1808.077851,596.786119L1775.770534,596.786119ZM1775.770534,435.249532L1775.770534,467.55685L1808.077851,467.55685L1808.077851,435.249532L1775.770534,435.249532ZM1775.770534,394.865386L1775.770534,427.172703L1808.077851,427.172703L1808.077851,394.865386L1775.770534,394.865386ZM1775.770534,273.712945L1775.770534,306.020263L1808.077851,306.020263L1808.077851,273.712945L1775.770534,273.712945ZM1775.770534,233.328798L1775.770534,265.636116L1808.077851,265.636116L1808.077851,233.328798L1775.770534,233.328798ZM1816.15468,637.170266L1816.15468,669.477584L1848.461998,669.477584L1848.461998,637.170266L1816.15468,637.170266ZM1816.15468,596.786119L1816.15468,629.093437L1848.461998,629.093437L1848.461998,596.786119L1816.15468,596.786119ZM1816.15468,435.249532L1816.15468,467.55685L1848.461998,467.55685L1848.461998,435.249532L1816.15468,435.249532ZM1816.15468,394.865386L1816.15468,427.172703L1848.461998,427.172703L1848.461998,394.865386L1816.15468,394.865386ZM1816.15468,273.712945L1816.15468,306.020263L1848.461998,306.020263L1848.461998,273.712945L1816.15468,273.712945ZM1816.15468,233.328798L1816.15468,265.636116L1848.461998,265.636116L1848.461998,233.328798L1816.15468,233.328798ZM1856.538827,637.170266L1856.538827,669.477584L1888.846145,669.477584L1888.846145,637.170266L1856.538827,637.170266ZM1856.538827,596.786119L1856.538827,629.093437L1888.846145,629.093437L1888.846145,596.786119L1856.538827,596.786119ZM1856.538827,435.249532L1856.538827,467.55685L1888.846145,467.55685L1888.846145,435.249532L1856.538827,435.249532ZM1856.538827,394.865386L1856.538827,427.172703L1888.846145,427.172703L1888.846145,394.865386L1856.538827,394.865386ZM1856.538827,273.712945L1856.538827,306.020263L1888.846145,306.020263L1888.846145,273.712945L1856.538827,273.712945ZM1856.538827,233.328798L1856.538827,265.636116L1888.846145,265.636116L1888.846145,233.328798L1856.538827,233.328798ZM1896.922974,596.786119L1896.922974,629.093437L1929.230291,629.093437L1929.230291,596.786119L1896.922974,596.786119ZM1896.922974,556.401973L1896.922974,588.70929L1929.230291,588.70929L1929.230291,556.401973L1896.922974,556.401973ZM1896.922974,516.017826L1896.922974,548.325143L1929.230291,548.325143L1929.230291,516.017826L1896.922974,516.017826ZM1896.922974,475.633679L1896.922974,507.940997L1929.230291,507.940997L1929.230291,475.633679L1896.922974,475.633679ZM1896.922974,435.249532L1896.922974,467.55685L1929.230291,467.55685L1929.230291,435.249532L1896.922974,435.249532ZM1896.922974,394.865386L1896.922974,427.172703L1929.230291,427.172703L1929.230291,394.865386L1896.922974,394.865386ZM1896.922974,354.481239L1896.922974,386.788556L1929.230291,386.788556L1929.230291,354.481239L1896.922974,354.481239ZM1896.922974,314.097092L1896.922974,346.404409L1929.230291,346.404409L1929.230291,314.097092L1896.922974,314.097092ZM1896.922974,273.712945L1896.922974,306.020263L1929.230291,306.020263L1929.230291,273.712945L1896.922974,273.712945ZM1896.922974,233.328798L1896.922974,265.636116L1929.230291,265.636116L1929.230291,233.328798L1896.922974,233.328798ZM1937.307121,637.170266L1937.307121,669.477584L1969.614438,669.477584L1969.614438,637.170266L1937.307121,637.170266ZM1937.307121,596.786119L1937.307121,629.093437L1969.614438,629.093437L1969.614438,596.786119L1937.307121,596.786119ZM1937.307121,556.401973L1937.307121,588.70929L1969.614438,588.70929L1969.614438,556.401973L1937.307121,556.401973ZM1937.307121,516.017826L1937.307121,548.325143L1969.614438,548.325143L1969.614438,516.017826L1937.307121,516.017826ZM1937.307121,475.633679L1937.307121,507.940997L1969.614438,507.940997L1969.614438,475.633679L1937.307121,475.633679ZM1937.307121,435.249532L1937.307121,467.55685L1969.614438,467.55685L1969.614438,435.249532L1937.307121,435.249532ZM1937.307121,394.865386L1937.307121,427.172703L1969.614438,427.172703L1969.614438,394.865386L1937.307121,394.865386ZM1937.307121,354.481239L1937.307121,386.788556L1969.614438,386.788556L1969.614438,354.481239L1937.307121,354.481239ZM1937.307121,314.097092L1937.307121,346.404409L1969.614438,346.404409L1969.614438,314.097092L1937.307121,314.097092ZM1937.307121,273.712945L1937.307121,306.020263L1969.614438,306.020263L1969.614438,273.712945L1937.307121,273.712945ZM1977.691268,637.170266L1977.691268,669.477584L2009.998585,669.477584L2009.998585,637.170266L1977.691268,637.170266ZM1977.691268,596.786119L1977.691268,629.093437L2009.998585,629.093437L2009.998585,596.786119L1977.691268,596.786119ZM1977.691268,556.401973L1977.691268,588.70929L2009.998585,588.70929L2009.998585,556.401973L1977.691268,556.401973ZM1977.691268,516.017826L1977.691268,548.325143L2009.998585,548.325143L2009.998585,516.017826L1977.691268,516.017826ZM1977.691268,475.633679L1977.691268,507.940997L2009.998585,507.940997L2009.998585,475.633679L1977.691268,475.633679ZM1977.691268,435.249532L1977.691268,467.55685L2009.998585,467.55685L2009.998585,435.249532L1977.691268,435.249532ZM1977.691268,394.865386L1977.691268,427.172703L2009.998585,427.172703L2009.998585,394.865386L1977.691268,394.865386ZM1977.691268,354.481239L1977.691268,386.788556L2009.998585,386.788556L2009.998585,354.481239L1977.691268,354.481239ZM1977.691268,314.097092L1977.691268,346.404409L2009.998585,346.404409L2009.998585,314.097092L1977.691268,314.097092ZM2018.075414,637.170266L2018.075414,669.477584L2050.382732,669.477584L2050.382732,637.170266L2018.075414,637.170266Z"/>
        <path d="M2098.843708,637.170266L2098.843708,669.477584L2131.151025,669.477584L2131.151025,637.170266L2098.843708,637.170266ZM2098.843708,233.328798L2098.843708,265.636116L2131.151025,265.636116L2131.151025,233.328798L2098.843708,233.328798ZM2139.227855,637.170266L2139.227855,669.477584L2171.535172,669.477584L2171.535172,637.170266L2139.227855,637.170266ZM2139.227855,596.786119L2139.227855,629.093437L2171.535172,629.093437L2171.535172,596.786119L2139.227855,596.786119ZM2139.227855,556.401973L2139.227855,588.70929L2171.535172,588.70929L2171.535172,556.401973L2139.227855,556.401973ZM2139.227855,516.017826L2139.227855,548.325143L2171.535172,548.325143L2171.535172,516.017826L2139.227855,516.017826ZM2139.227855,475.633679L2139.227855,507.940997L2171.535172,507.940997L2171.535172,475.633679L2139.227855,475.633679ZM2139.227855,435.249532L2139.227855,467.55685L2171.535172,467.55685L2171.535172,435.249532L2139.227855,435.249532ZM2139.227855,394.865386L2139.227855,427.172703L2171.535172,427.172703L2171.535172,394.865386L2139.227855,394.865386ZM2139.227855,354.481239L2139.227855,386.788556L2171.535172,386.788556L2171.535172,354.481239L2139.227855,354.481239ZM2139.227855,314.097092L2139.227855,346.404409L2171.535172,346.404409L2171.535172,314.097092L2139.227855,314.097092ZM2139.227855,273.712945L2139.227855,306.020263L2171.535172,306.020263L2171.535172,273.712945L2139.227855,273.712945ZM2139.227855,233.328798L2139.227855,265.636116L2171.535172,265.636116L2171.535172,233.328798L2139.227855,233.328798ZM2179.612001,637.170266L2179.612001,669.477584L2211.919319,669.477584L2211.919319,637.170266L2179.612001,637.170266ZM2179.612001,596.786119L2179.612001,629.093437L2211.919319,629.093437L2211.919319,596.786119L2179.612001,596.786119ZM2179.612001,556.401973L2179.612001,588.70929L2211.919319,588.70929L2211.919319,556.401973L2179.612001,556.401973ZM2179.612001,516.017826L2179.612001,548.325143L2211.919319,548.325143L2211.919319,516.017826L2179.612001,516.017826ZM2179.612001,475.633679L2179.612001,507.940997L2211.919319,507.940997L2211.919319,475.633679L2179.612001,475.633679ZM2179.612001,435.249532L2179.612001,467.55685L2211.919319,467.55685L2211.919319,435.249532L2179.612001,435.249532ZM2179.612001,394.865386L2179.612001,427.172703L2211.919319,427.172703L2211.919319,394.865386L2179.612001,394.865386ZM2179.612001,354.481239L2179.612001,386.788556L2211.919319,386.788556L2211.919319,354.481239L2179.612001,354.481239ZM2179.612001,314.097092L2179.612001,346.404409L2211.919319,346.404409L2211.919319,314.097092L2179.612001,314.097092ZM2179.612001,273.712945L2179.612001,306.020263L2211.919319,306.020263L2211.919319,273.712945L2179.612001,273.712945ZM2179.612001,233.328798L2179.612001,265.636116L2211.919319,265.636116L2211.919319,233.328798L2179.612001,233.328798ZM2219.996148,637.170266L2219.996148,669.477584L2252.303466,669.477584L2252.303466,637.170266L2219.996148,637.170266ZM2219.996148,596.786119L2219.996148,629.093437L2252.303466,629.093437L2252.303466,596.786119L2219.996148,596.786119ZM2219.996148,556.401973L2219.996148,588.70929L2252.303466,588.70929L2252.303466,556.401973L2219.996148,556.401973ZM2219.996148,516.017826L2219.996148,548.325143L2252.303466,548.325143L2252.303466,516.017826L2219.996148,516.017826ZM2219.996148,475.633679L2219.996148,507.940997L2252.303466,507.940997L2252.303466,475.633679L2219.996148,475.633679ZM2219.996148,435.249532L2219.996148,467.55685L2252.303466,467.55685L2252.303466,435.249532L2219.996148,435.249532ZM2219.996148,394.865386L2219.996148,427.172703L2252.303466,427.172703L2252.303466,394.865386L2219.996148,394.865386ZM2219.996148,354.481239L2219.996148,386.788556L2252.303466,386.788556L2252.303466,354.481239L2219.996148,354.481239ZM2219.996148,314.097092L2219.996148,346.404409L2252.303466,346.404409L2252.303466,314.097092L2219.996148,314.097092ZM2219.996148,273.712945L2219.996148,306.020263L2252.303466,306.020263L2252.303466,273.712945L2219.996148,273.712945ZM2260.380295,637.170266L2260.380295,669.477584L2292.687612,669.477584L2292.687612,637.170266L2260.380295,637.170266ZM2260.380295,273.712945L2260.380295,306.020263L2292.687612,306.020263L2292.687612,273.712945L2260.380295,273.712945ZM2260.380295,233.328798L2260.380295,265.636116L2292.687612,265.636116L2292.687612,233.328798L2260.380295,233.328798ZM2300.764442,273.712945L2300.764442,306.020263L2333.071759,306.020263L2333.071759,273.712945L2300.764442,273.712945ZM2300.764442,233.328798L2300.764442,265.636116L2333.071759,265.636116L2333.071759,233.328798L2300.764442,233.328798ZM2341.148589,637.170266L2341.148589,669.477584L2373.455906,669.477584L2373.455906,637.170266L2341.148589,637.170266ZM2341.148589,273.712945L2341.148589,306.020263L2373.455906,306.020263L2373.455906,273.712945L2341.148589,273.712945ZM2341.148589,233.328798L2341.148589,265.636116L2373.455906,265.636116L2373.455906,233.328798L2341.148589,233.328798ZM2381.532735,637.170266L2381.532735,669.477584L2413.840053,669.477584L2413.840053,637.170266L2381.532735,637.170266ZM2381.532735,596.786119L2381.532735,629.093437L2413.840053,629.093437L2413.840053,596.786119L2381.532735,596.786119ZM2381.532735,556.401973L2381.532735,588.70929L2413.840053,588.70929L2413.840053,556.401973L2381.532735,556.401973ZM2381.532735,516.017826L2381.532735,548.325143L2413.840053,548.325143L2413.840053,516.017826L2381.532735,516.017826ZM2381.532735,475.633679L2381.532735,507.940997L2413.840053,507.940997L2413.840053,475.633679L2381.532735,475.633679ZM2381.532735,435.249532L2381.532735,467.55685L2413.840053,467.55685L2413.840053,435.249532L2381.532735,435.249532ZM2381.532735,394.865386L2381.532735,427.172703L2413.840053,427.172703L2413.840053,394.865386L2381.532735,394.865386ZM2381.532735,354.481239L2381.532735,386.788556L2413.840053,386.788556L2413.840053,354.481239L2381.532735,354.481239ZM2381.532735,314.097092L2381.532735,346.404409L2413.840053,346.404409L2413.840053,314.097092L2381.532735,314.097092ZM2381.532735,273.712945L2381.532735,306.020263L2413.840053,306.020263L2413.840053,273.712945L2381.532735,273.712945ZM2381.532735,233.328798L2381.532735,265.636116L2413.840053,265.636116L2413.840053,233.328798L2381.532735,233.328798ZM2421.916882,637.170266L2421.916882,669.477584L2454.2242,669.477584L2454.2242,637.170266L2421.916882,637.170266ZM2421.916882,596.786119L2421.916882,629.093437L2454.2242,629.093437L2454.2242,596.786119L2421.916882,596.786119ZM2421.916882,556.401973L2421.916882,588.70929L2454.2242,588.70929L2454.2242,556.401973L2421.916882,556.401973ZM2421.916882,516.017826L2421.916882,548.325143L2454.2242,548.325143L2454.2242,516.017826L2421.916882,516.017826ZM2421.916882,475.633679L2421.916882,507.940997L2454.2242,507.940997L2454.2242,475.633679L2421.916882,475.633679ZM2421.916882,435.249532L2421.916882,467.55685L2454.2242,467.55685L2454.2242,435.249532L2421.916882,435.249532ZM2421.916882,394.865386L2421.916882,427.172703L2454.2242,427.172703L2454.2242,394.865386L2421.916882,394.865386ZM2421.916882,354.481239L2421.916882,386.788556L2454.2242,386.788556L2454.2242,354.481239L2421.916882,354.481239ZM2421.916882,314.097092L2421.916882,346.404409L2454.2242,346.404409L2454.2242,314.097092L2421.916882,314.097092ZM2421.916882,273.712945L2421.916882,306.020263L2454.2242,306.020263L2454.2242,273.712945L2421.916882,273.712945ZM2462.301029,637.170266L2462.301029,669.477584L2494.608346,669.477584L2494.608346,637.170266L2462.301029,637.170266ZM2462.301029,596.786119L2462.301029,629.093437L2494.608346,629.093437L2494.608346,596.786119L2462.301029,596.786119ZM2462.301029,556.401973L2462.301029,588.70929L2494.608346,588.70929L2494.608346,556.401973L2462.301029,556.401973ZM2462.301029,516.017826L2462.301029,548.325143L2494.608346,548.325143L2494.608346,516.017826L2462.301029,516.017826ZM2462.301029,475.633679L2462.301029,507.940997L2494.608346,507.940997L2494.608346,475.633679L2462.301029,475.633679ZM2462.301029,435.249532L2462.301029,467.55685L2494.608346,467.55685L2494.608346,435.249532L2462.301029,435.249532ZM2462.301029,394.865386L2462.301029,427.172703L2494.608346,427.172703L2494.608346,394.865386L2462.301029,394.865386ZM2462.301029,354.481239L2462.301029,386.788556L2494.608346,386.788556L2494.608346,354.481239L2462.301029,354.481239ZM2462.301029,314.097092L2462.301029,346.404409L2494.608346,346.404409L2494.608346,314.097092L2462.301029,314.097092ZM2462.301029,273.712945L2462.301029,306.020263L2494.608346,306.020263L2494.608346,273.712945L2462.301029,273.712945ZM2502.685176,637.170266L2502.685176,669.477584L2534.992493,669.477584L2534.992493,637.170266L2502.685176,637.170266ZM2421.916882,233.328798L2421.916882,265.636116L2454.2242,265.636116L2454.2242,233.328798L2421.916882,233.328798Z"/>
        <path d="M2583.453469,556.401973L2583.453469,588.70929L2615.760787,588.70929L2615.760787,556.401973L2583.453469,556.401973ZM2583.453469,516.017826L2583.453469,548.325143L2615.760787,548.325143L2615.760787,516.017826L2583.453469,516.017826ZM2583.453469,475.633679L2583.453469,507.940997L2615.760787,507.940997L2615.760787,475.633679L2583.453469,475.633679ZM2583.453469,435.249532L2583.453469,467.55685L2615.760787,467.55685L2615.760787,435.249532L2583.453469,435.249532ZM2583.453469,394.865386L2583.453469,427.172703L2615.760787,427.172703L2615.760787,394.865386L2583.453469,394.865386ZM2583.453469,354.481239L2583.453469,386.788556L2615.760787,386.788556L2615.760787,354.481239L2583.453469,354.481239ZM2583.453469,314.097092L2583.453469,346.404409L2615.760787,346.404409L2615.760787,314.097092L2583.453469,314.097092ZM2623.837616,637.170266L2623.837616,669.477584L2656.144934,669.477584L2656.144934,637.170266L2623.837616,637.170266ZM2623.837616,596.786119L2623.837616,629.093437L2656.144934,629.093437L2656.144934,596.786119L2623.837616,596.786119ZM2623.837616,556.401973L2623.837616,588.70929L2656.144934,588.70929L2656.144934,556.401973L2623.837616,556.401973ZM2623.837616,516.017826L2623.837616,548.325143L2656.144934,548.325143L2656.144934,516.017826L2623.837616,516.017826ZM2623.837616,475.633679L2623.837616,507.940997L2656.144934,507.940997L2656.144934,475.633679L2623.837616,475.633679ZM2623.837616,435.249532L2623.837616,467.55685L2656.144934,467.55685L2656.144934,435.249532L2623.837616,435.249532ZM2623.837616,394.865386L2623.837616,427.172703L2656.144934,427.172703L2656.144934,394.865386L2623.837616,394.865386ZM2623.837616,354.481239L2623.837616,386.788556L2656.144934,386.788556L2656.144934,354.481239L2623.837616,354.481239ZM2623.837616,314.097092L2623.837616,346.404409L2656.144934,346.404409L2656.144934,314.097092L2623.837616,314.097092ZM2623.837616,273.712945L2623.837616,306.020263L2656.144934,306.020263L2656.144934,273.712945L2623.837616,273.712945ZM2623.837616,233.328798L2623.837616,265.636116L2656.144934,265.636116L2656.144934,233.328798L2623.837616,233.328798ZM2664.221763,637.170266L2664.221763,669.477584L2696.52908,669.477584L2696.52908,637.170266L2664.221763,637.170266ZM2664.221763,596.786119L2664.221763,629.093437L2696.52908,629.093437L2696.52908,596.786119L2664.221763,596.786119ZM2664.221763,556.401973L2664.221763,588.70929L2696.52908,588.70929L2696.52908,556.401973L2664.221763,556.401973ZM2664.221763,516.017826L2664.221763,548.325143L2696.52908,548.325143L2696.52908,516.017826L2664.221763,516.017826ZM2664.221763,475.633679L2664.221763,507.940997L2696.52908,507.940997L2696.52908,475.633679L2664.221763,475.633679ZM2664.221763,394.865386L2664.221763,427.172703L2696.52908,427.172703L2696.52908,394.865386L2664.221763,394.865386ZM2664.221763,354.481239L2664.221763,386.788556L2696.52908,386.788556L2696.52908,354.481239L2664.221763,354.481239ZM2664.221763,314.097092L2664.221763,346.404409L2696.52908,346.404409L2696.52908,314.097092L2664.221763,314.097092ZM2664.221763,273.712945L2664.221763,306.020263L2696.52908,306.020263L2696.52908,273.712945L2664.221763,273.712945ZM2664.221763,233.328798L2664.221763,265.636116L2696.52908,265.636116L2696.52908,233.328798L2664.221763,233.328798ZM2704.60591,637.170266L2704.60591,669.477584L2736.913227,669.477584L2736.913227,637.170266L2704.60591,637.170266ZM2704.60591,596.786119L2704.60591,629.093437L2736.913227,629.093437L2736.913227,596.786119L2704.60591,596.786119ZM2704.60591,273.712945L2704.60591,306.020263L2736.913227,306.020263L2736.913227,273.712945L2704.60591,273.712945ZM2704.60591,233.328798L2704.60591,265.636116L2736.913227,265.636116L2736.913227,233.328798L2704.60591,233.328798ZM2744.990057,637.170266L2744.990057,669.477584L2777.297374,669.477584L2777.297374,637.170266L2744.990057,637.170266ZM2744.990057,596.786119L2744.990057,629.093437L2777.297374,629.093437L2777.297374,596.786119L2744.990057,596.786119ZM2744.990057,273.712945L2744.990057,306.020263L2777.297374,306.020263L2777.297374,273.712945L2744.990057,273.712945ZM2744.990057,233.328798L2744.990057,265.636116L2777.297374,265.636116L2777.297374,233.328798L2744.990057,233.328798ZM2744.990057,31.408064L2744.990057,63.715382L2777.297374,63.715382L2777.297374,31.408064L2744.990057,31.408064ZM2785.374203,637.170266L2785.374203,669.477584L2817.681521,669.477584L2817.681521,637.170266L2785.374203,637.170266ZM2785.374203,596.786119L2785.374203,629.093437L2817.681521,629.093437L2817.681521,596.786119L2785.374203,596.786119ZM2785.374203,273.712945L2785.374203,306.020263L2817.681521,306.020263L2817.681521,273.712945L2785.374203,273.712945ZM2785.374203,31.408064L2785.374203,63.715382L2817.681521,63.715382L2817.681521,31.408064L2785.374203,31.408064ZM2825.75835,637.170266L2825.75835,669.477584L2858.065668,669.477584L2858.065668,637.170266L2825.75835,637.170266ZM2825.75835,596.786119L2825.75835,629.093437L2858.065668,629.093437L2858.065668,596.786119L2825.75835,596.786119ZM2825.75835,556.401973L2825.75835,588.70929L2858.065668,588.70929L2858.065668,556.401973L2825.75835,556.401973ZM2825.75835,516.017826L2825.75835,548.325143L2858.065668,548.325143L2858.065668,516.017826L2825.75835,516.017826ZM2825.75835,475.633679L2825.75835,507.940997L2858.065668,507.940997L2858.065668,475.633679L2825.75835,475.633679ZM2825.75835,435.249532L2825.75835,467.55685L2858.065668,467.55685L2858.065668,435.249532L2825.75835,435.249532ZM2825.75835,394.865386L2825.75835,427.172703L2858.065668,427.172703L2858.065668,394.865386L2825.75835,394.865386ZM2825.75835,354.481239L2825.75835,386.788556L2858.065668,386.788556L2858.065668,354.481239L2825.75835,354.481239ZM2825.75835,314.097092L2825.75835,346.404409L2858.065668,346.404409L2858.065668,314.097092L2825.75835,314.097092ZM2825.75835,273.712945L2825.75835,306.020263L2858.065668,306.020263L2858.065668,273.712945L2825.75835,273.712945ZM2825.75835,233.328798L2825.75835,265.636116L2858.065668,265.636116L2858.065668,233.328798L2825.75835,233.328798ZM2825.75835,192.944652L2825.75835,225.251969L2858.065668,225.251969L2858.065668,192.944652L2825.75835,192.944652ZM2825.75835,152.560505L2825.75835,184.867822L2858.065668,184.867822L2858.065668,152.560505L2825.75835,152.560505ZM2825.75835,112.176358L2825.75835,144.483675L2858.065668,144.483675L2858.065668,112.176358L2825.75835,112.176358ZM2825.75835,71.792211L2825.75835,104.099529L2858.065668,104.099529L2858.065668,71.792211L2825.75835,71.792211ZM2825.75835,31.408064L2825.75835,63.715382L2858.065668,63.715382L2858.065668,31.408064L2825.75835,31.408064ZM2866.142497,637.170266L2866.142497,669.477584L2898.449814,669.477584L2898.449814,637.170266L2866.142497,637.170266ZM2866.142497,596.786119L2866.142497,629.093437L2898.449814,629.093437L2898.449814,596.786119L2866.142497,596.786119ZM2866.142497,556.401973L2866.142497,588.70929L2898.449814,588.70929L2898.449814,556.401973L2866.142497,556.401973ZM2866.142497,516.017826L2866.142497,548.325143L2898.449814,548.325143L2898.449814,516.017826L2866.142497,516.017826ZM2866.142497,475.633679L2866.142497,507.940997L2898.449814,507.940997L2898.449814,475.633679L2866.142497,475.633679ZM2866.142497,435.249532L2866.142497,467.55685L2898.449814,467.55685L2898.449814,435.249532L2866.142497,435.249532ZM2866.142497,394.865386L2866.142497,427.172703L2898.449814,427.172703L2898.449814,394.865386L2866.142497,394.865386ZM2866.142497,354.481239L2866.142497,386.788556L2898.449814,386.788556L2898.449814,354.481239L2866.142497,354.481239ZM2866.142497,314.097092L2866.142497,346.404409L2898.449814,346.404409L2898.449814,314.097092L2866.142497,314.097092ZM2866.142497,273.712945L2866.142497,306.020263L2898.449814,306.020263L2898.449814,273.712945L2866.142497,273.712945ZM2866.142497,233.328798L2866.142497,265.636116L2898.449814,265.636116L2898.449814,233.328798L2866.142497,233.328798ZM2866.142497,192.944652L2866.142497,225.251969L2898.449814,225.251969L2898.449814,192.944652L2866.142497,192.944652ZM2866.142497,152.560505L2866.142497,184.867822L2898.449814,184.867822L2898.449814,152.560505L2866.142497,152.560505ZM2866.142497,112.176358L2866.142497,144.483675L2898.449814,144.483675L2898.449814,112.176358L2866.142497,112.176358ZM2866.142497,71.792211L2866.142497,104.099529L2898.449814,104.099529L2898.449814,71.792211L2866.142497,71.792211ZM2866.142497,31.408064L2866.142497,63.715382L2898.449814,63.715382L2898.449814,31.408064L2866.142497,31.408064ZM2906.526644,637.170266L2906.526644,669.477584L2938.833961,669.477584L2938.833961,637.170266L2906.526644,637.170266ZM2906.526644,596.786119L2906.526644,629.093437L2938.833961,629.093437L2938.833961,596.786119L2906.526644,596.786119ZM2906.526644,556.401973L2906.526644,588.70929L2938.833961,588.70929L2938.833961,556.401973L2906.526644,556.401973ZM2906.526644,516.017826L2906.526644,548.325143L2938.833961,548.325143L2938.833961,516.017826L2906.526644,516.017826ZM2906.526644,475.633679L2906.526644,507.940997L2938.833961,507.940997L2938.833961,475.633679L2906.526644,475.633679ZM2906.526644,435.249532L2906.526644,467.55685L2938.833961,467.55685L2938.833961,435.249532L2906.526644,435.249532ZM2906.526644,394.865386L2906.526644,427.172703L2938.833961,427.172703L2938.833961,394.865386L2906.526644,394.865386ZM2906.526644,354.481239L2906.526644,386.788556L2938.833961,386.788556L2938.833961,354.481239L2906.526644,354.481239ZM2906.526644,314.097092L2906.526644,346.404409L2938.833961,346.404409L2938.833961,314.097092L2906.526644,314.097092ZM2906.526644,273.712945L2906.526644,306.020263L2938.833961,306.020263L2938.833961,273.712945L2906.526644,273.712945ZM2906.526644,233.328798L2906.526644,265.636116L2938.833961,265.636116L2938.833961,233.328798L2906.526644,233.328798ZM2906.526644,192.944652L2906.526644,225.251969L2938.833961,225.251969L2938.833961,192.944652L2906.526644,192.944652ZM2906.526644,152.560505L2906.526644,184.867822L2938.833961,184.867822L2938.833961,152.560505L2906.526644,152.560505ZM2906.526644,112.176358L2906.526644,144.483675L2938.833961,144.483675L2938.833961,112.176358L2906.526644,112.176358ZM2906.526644,71.792211L2906.526644,104.099529L2938.833961,104.099529L2938.833961,71.792211L2906.526644,71.792211ZM2906.526644,31.408064L2906.526644,63.715382L2938.833961,63.715382L2938.833961,31.408064L2906.526644,31.408064ZM2946.91079,637.170266L2946.91079,669.477584L2979.218108,669.477584L2979.218108,637.170266L2946.91079,637.170266ZM2664.221763,435.249532L2664.221763,467.55685L2696.52908,467.55685L2696.52908,435.249532L2664.221763,435.249532Z"/>
    </g>
</svg>
